Coordinates
version=1
nRows=14
nColumns=36
inDegrees=yes

Units are S.I. units (second, meters, Newtons, ...)
If the header above contains a line with 'inDegrees', this indicates whether rotational values are in degrees (yes) or radians (no).

endheader
time	pelvis_tilt	pelvis_list	pelvis_rotation	pelvis_tx	pelvis_ty	pelvis_tz	hip_flexion_r	hip_adduction_r	hip_rotation_r	knee_angle_r	knee_angle_r_beta	ankle_angle_r	subtalar_angle_r	mtp_angle_r	hip_flexion_l	hip_adduction_l	hip_rotation_l	knee_angle_l	knee_angle_l_beta	ankle_angle_l	subtalar_angle_l	mtp_angle_l	lumbar_extension	lumbar_bending	lumbar_rotation	arm_flex_r	arm_add_r	arm_rot_r	elbow_flex_r	pro_sup_r	arm_flex_l	arm_add_l	arm_rot_l	elbow_flex_l	pro_sup_l
      3.70833330	    -10.71018232	     -1.45128321	     -2.18763992	      0.56661010	      0.94715161	     -0.04526362	     -0.27200297	     -2.56715733	    -11.44886858	      0.27729132	      0.00483965	      6.82676000	     -4.50330131	     -7.49999987	     -0.37588362	     -7.93200778	    -11.17256624	      0.56734146	      0.00990198	      6.60601254	     -0.54772996	     -7.49999987	      2.71344224	      2.78576753	     -2.31128387	    -11.46311309	    -21.44754149	     -7.07038729	     24.80728908	     71.74802767	    -17.60357461	    -20.28318769	     15.36505187	     28.11911605	     60.83837574
      3.71250000	    -10.57370722	     -1.46973028	     -2.32301476	      0.56708198	      0.94774371	     -0.04490329	     -0.43738655	     -2.60020766	    -11.49382301	      0.27890779	      0.00486786	      7.01392531	     -4.34401398	     -7.49999987	     -0.62757603	     -7.94295802	    -11.26412235	      0.53483870	      0.00933470	      6.94113506	     -0.36749275	     -7.49999987	      2.78257851	      2.84025965	     -2.25340229	    -11.77739486	    -21.84765053	     -7.37827185	     24.69530748	     70.75787496	    -17.48681276	    -20.67172265	     15.69759390	     28.39949298	     60.57528927
      3.71666670	    -10.47102529	     -1.42981345	     -2.24540839	      0.57050018	      0.94521996	     -0.04992571	     -0.64806431	     -2.78686027	    -11.90402801	      0.28258098	      0.00493197	      7.14355183	     -4.06473606	     -7.49999987	     -0.78281137	     -7.79676215	    -11.06260361	      0.50066522	      0.00873826	      7.14148228	     -0.51717684	     -7.49999987	      3.06383956	      2.97343099	     -2.22205897	    -12.34173901	    -22.45325196	     -7.77926258	     24.31765381	     70.22352153	    -17.40792497	    -20.74020583	     15.63768655	     28.24178452	     60.31479076
      3.72083330	    -10.45134807	     -1.42603709	     -2.26486724	      0.57113603	      0.94011712	     -0.04945684	     -0.76805905	     -2.91640613	    -12.09729452	      0.29610198	      0.00516795	      7.40173440	     -3.92084414	     -7.49999987	     -0.93741438	     -7.71015680	    -11.06952762	      0.47484437	      0.00828760	      7.59265848	     -0.57736571	     -7.49999987	      3.34732320	      3.14284364	     -2.28468536	    -12.66509445	    -23.09938929	     -8.87998545	     24.12382132	     69.11267200	    -17.48743263	    -20.86483379	     15.63702813	     28.05167114	     59.78678390
      3.72500000	    -10.42437465	     -1.46313941	     -2.39921424	      0.56710144	      0.94393400	     -0.04442129	     -0.78969754	     -2.89423251	    -12.02062317	      0.30342073	      0.00529569	      7.71755675	     -3.86473457	     -7.49999987	     -1.05632487	     -7.74378015	    -11.08162183	      0.46250570	      0.00807225	      7.81936228	     -0.73636659	     -7.49999987	      3.50226597	      3.19610379	     -2.32266368	    -12.52543230	    -23.38160805	     -9.04140390	     24.01541618	     69.07027967	    -17.36372090	    -21.09866698	     15.63588398	     27.94802764	     59.71567998
      3.72916670	    -10.32318246	     -1.42054633	     -2.49355998	      0.57114818	      0.94770751	     -0.04885554	     -0.96039684	     -3.01517812	    -12.26568254	      0.30532205	      0.00532887	      7.89457038	     -3.35546520	     -7.49999987	     -1.27629500	     -7.63286930	    -11.17663138	      0.44892271	      0.00783518	      7.84226570	     -0.61599697	     -7.49999987	      3.62280300	      3.32020697	     -2.26010192	    -12.44636596	    -23.69431240	     -9.82600271	     23.17478986	     68.48024440	    -17.19261991	    -20.91756653	     15.68453700	     27.41021605	     59.35033727
      3.73333330	    -10.23809934	     -1.47348397	     -2.63548688	      0.56743143	      0.94497133	     -0.04406268	     -1.01465681	     -2.92384776	    -12.13988445	      0.30108322	      0.00525489	      8.24501171	     -3.24287735	     -7.49999987	     -1.40758464	     -7.69047933	    -11.14632182	      0.44873199	      0.00783185	      8.08886435	     -0.81907344	     -7.49999987	      3.56143757	      3.35407903	     -2.16310871	    -12.22415187	    -23.68407805	    -10.48062440	     22.89128647	     67.79826914	    -16.89936654	    -20.98946829	     15.67064872	     27.09899022	     58.98933891
      3.73750000	    -10.26638023	     -1.45025725	     -2.79295234	      0.56802418	      0.94554781	     -0.04372985	     -0.94237551	     -2.90432602	    -12.06500250	      0.29563706	      0.00515984	      8.38190216	     -2.95245449	     -7.49999987	     -1.40821105	     -7.70056094	    -11.26637187	      0.45033791	      0.00785988	      8.11403995	     -0.67479566	     -7.49999987	      3.73610529	      3.30438814	     -2.12308988	    -11.80602262	    -23.63785336	    -10.70104438	     22.17329242	     67.60996773	    -16.65561264	    -20.94651190	     15.95983636	     26.39519117	     58.61628730
      3.74166670	    -10.27554838	     -1.39989568	     -2.97754013	      0.57117643	      0.94904808	     -0.04854179	     -0.93307305	     -3.01849923	    -12.10204228	      0.29254459	      0.00510587	      8.26786166	     -2.63104619	     -7.49999987	     -1.46525754	     -7.60552005	    -11.40843063	      0.44092534	      0.00769560	      8.14196351	     -0.53941151	     -7.49999987	      3.73340374	      3.43965339	     -1.95531506	    -11.81264925	    -23.76740890	    -11.07606096	     22.04414911	     67.09746271	    -16.35464014	    -20.66831341	     15.88383824	     25.96947648	     58.24909265
      3.74583330	    -10.31812468	     -1.35396839	     -3.09458606	      0.57171466	      0.94898651	     -0.04818824	     -0.89405908	     -3.11442180	    -12.42106090	      0.28964098	      0.00505519	      8.37930506	     -2.02502684	     -7.49999987	     -1.45624768	     -7.52744277	    -11.63439284	      0.43570973	      0.00760457	      8.21253337	     -0.33404120	     -7.49999987	      3.85887854	      3.54034836	     -1.97519130	    -11.56363905	    -23.80348916	    -11.02688345	     21.52862384	     66.04214090	    -15.71676695	    -20.44184303	     16.85935215	     24.58157313	     57.47598391
      3.75000000	    -10.24954007	     -1.33427402	     -3.11373302	      0.57143569	      0.94581434	     -0.04817819	     -1.02641710	     -3.17091870	    -12.45701511	      0.28264676	      0.00493312	      8.38344105	     -1.91326174	     -7.49999987	     -1.56258028	     -7.46128134	    -11.63705443	      0.42890892	      0.00748587	      8.25844335	     -0.36945813	     -7.49999987	      3.67293295	      3.57891285	     -1.92092477	    -11.54386840	    -23.82044395	    -11.13993096	     21.57568663	     65.46354193	    -15.43123569	    -20.49491359	     17.27766808	     24.38542843	     57.13956035
      3.75416670	    -10.26844557	     -1.29218068	     -3.15835832	      0.57211671	      0.94633362	     -0.04785757	     -1.06373416	     -3.23714843	    -12.68043747	      0.28432211	      0.00496236	      8.45473238	     -1.55223447	     -7.49999987	     -1.59359511	     -7.38684186	    -11.67164458	      0.42685441	      0.00745001	      8.21786284	     -0.41521406	     -7.49999987	      3.64933763	      3.62256930	     -1.92476437	    -11.40856149	    -23.78545490	    -11.35451719	     21.37754695	     64.77551979	    -15.17634701	    -20.32356300	     17.51722733	     23.71685903	     56.88326309
      3.75833330	    -10.20437618	     -1.29164159	     -3.28873987	      0.57525012	      0.94963301	     -0.04355140	     -1.20348886	     -3.17532015	    -12.71566377	      0.27595498	      0.00481632	      8.46892755	     -1.34762897	     -7.49999987	     -1.78118446	     -7.42410338	    -11.95803478	      0.41750423	      0.00728682	      8.21361869	     -0.04820386	     -7.49999987	      3.62091128	      3.60437403	     -2.04520087	    -11.32739653	    -23.51992519	    -11.38939633	     21.38465234	     64.35186740	    -15.13207116	    -20.29206357	     17.93683408	     23.02997921	     56.62271109
      3.76250000	    -10.23047728	     -1.28012057	     -3.42993088	      0.57577682	      0.94957803	     -0.04321174	     -1.24536142	     -3.12436119	    -12.85338390	      0.27124626	      0.00473414	      8.56671458	     -0.97748468	     -7.49999987	     -1.88949066	     -7.46597062	    -12.32886969	      0.41425380	      0.00723009	      8.17393938	      0.20291585	     -7.49999987	      3.77363359	      3.48892200	     -2.16749526	    -11.17183346	    -23.29933242	    -11.43287899	     21.15567583	     63.91939556	    -14.97084995	    -20.49117489	     18.51150835	     22.20912095	     56.33068808
